<svg version="1.1" id="Layer_1" xmlns="http://www.w3.org/2000/svg" xmlns:xlink="http://www.w3.org/1999/xlink" x="0px" y="0px"
	 width="100%" viewBox="0 0 1024 1024" enable-background="new 0 0 1024 1024" xml:space="preserve">
<path fill="#000000" opacity="1.000000" stroke="none" 
	d="
M495.371643,196.357391 
	C497.653961,194.378403 499.678009,192.645157 501.666138,190.871689 
	C508.058533,185.169510 514.123474,185.167068 520.724060,191.184586 
	C539.213745,208.040878 560.433960,220.247635 583.961792,228.542679 
	C601.820740,234.839081 620.319885,238.055649 639.122253,239.684311 
	C649.390869,240.573776 654.223755,245.497375 654.242554,255.714813 
	C654.310120,292.532959 654.633057,329.354675 654.244934,366.168579 
	C653.813354,407.097534 639.366089,442.919891 612.764343,473.835846 
	C587.281677,503.451080 555.778137,524.684692 519.878967,539.681152 
	C514.401611,541.969238 508.962036,542.564636 503.410583,540.240051 
	C460.283478,522.180786 422.971191,496.465454 396.400543,457.221863 
	C378.048523,430.116760 368.129700,400.292816 368.598358,367.094971 
	C369.115692,330.450500 368.716461,293.793121 368.728088,257.141388 
	C368.731934,244.950989 372.774078,240.683807 384.801239,239.640182 
	C425.770264,236.085114 463.204742,223.419174 495.371643,196.357391 
M542.206055,501.667725 
	C561.634888,489.735474 579.309326,475.721222 594.182190,458.306244 
	C615.855042,432.928955 629.308838,403.834930 630.440674,370.384491 
	C631.589661,336.427002 630.686218,302.401154 630.780579,268.405487 
	C630.791382,264.493073 629.312866,262.658539 625.382568,262.199768 
	C613.801025,260.847839 602.321960,258.858215 591.034668,255.874527 
	C564.101990,248.755127 539.759460,236.357529 517.485840,219.751083 
	C511.564636,215.336380 510.656647,215.328156 504.862823,219.670837 
	C494.581848,227.376801 483.832794,234.340912 472.469482,240.362473 
	C450.223083,252.151093 426.313843,258.282928 401.496948,261.319977 
	C392.625885,262.405609 392.335388,262.614441 392.331970,271.287109 
	C392.319153,303.783234 392.380280,336.279541 392.275360,368.775360 
	C392.203796,390.943085 397.740173,411.658020 408.476227,430.911163 
	C430.673981,470.718750 465.024384,496.611633 505.734467,515.125977 
	C509.748444,516.951477 513.437073,516.426819 517.249451,514.759583 
	C525.657959,511.082306 533.681396,506.676544 542.206055,501.667725 
z"/>
<path fill="#000000" opacity="1.000000" stroke="none" 
	d="
M392.432617,683.323242 
	C389.910797,684.068909 388.643280,682.735779 387.495087,681.238831 
	C378.774597,669.869873 369.949860,658.577820 361.410309,647.074280 
	C357.787201,642.193726 359.177521,636.858276 364.228333,633.828796 
	C367.971802,631.583435 371.209747,631.471558 374.379761,635.169006 
	C377.896820,639.271179 381.388519,638.353271 382.955261,633.111206 
	C384.567444,627.717041 383.316864,622.578308 381.056946,617.618347 
	C379.982635,615.260559 377.865814,614.955017 375.598175,614.948975 
	C370.099030,614.934265 364.600037,614.879456 359.100922,614.860352 
	C355.612091,614.848206 354.107117,613.432861 354.273132,609.653015 
	C354.694153,600.067688 354.539948,600.057373 364.307678,600.056091 
	C463.799042,600.042603 563.290405,600.030029 662.781799,600.018372 
	C670.382141,600.017517 674.109436,605.925354 670.754761,612.724854 
	C669.437927,615.393860 666.774841,614.939209 664.573059,614.830139 
	C660.377075,614.622375 659.163574,616.437256 659.195862,620.469116 
	C659.345276,639.132874 659.261841,657.798706 659.230103,676.463745 
	C659.219177,682.904114 658.911194,683.170349 652.415588,683.247742 
	C651.249146,683.261597 650.070312,683.147339 648.918030,683.277283 
	C644.327942,683.795044 642.751526,681.732422 642.788574,677.222168 
	C642.937988,659.058350 642.845276,640.892578 642.840515,622.727478 
	C642.838440,614.960510 642.836731,614.960510 635.255188,614.892700 
	C626.229370,614.811951 626.229675,614.811951 626.228821,623.775757 
	C626.227112,641.607544 626.114380,659.440552 626.299866,677.270386 
	C626.347168,681.812073 624.889709,683.429565 620.252686,683.349731 
	C609.864258,683.170776 609.851562,683.377075 609.837585,673.037415 
	C609.826111,664.538147 609.670044,656.034058 609.914246,647.541748 
	C610.034973,643.344482 608.445251,641.859314 604.383118,642.148926 
	C600.900024,642.397217 597.384155,642.140747 593.888367,642.265198 
	C586.717468,642.520508 582.726440,647.566833 583.865540,654.650513 
	C584.898010,661.070679 588.414062,666.056763 592.975037,670.351501 
	C595.897827,673.103760 596.789490,675.261169 593.372986,678.520081 
	C587.107727,684.496521 586.508850,684.982239 582.539246,681.086609 
	C574.147949,672.851746 567.432617,663.675232 567.503418,651.158875 
	C567.583496,637.004211 575.315369,628.725342 589.478210,627.890320 
	C594.793884,627.576904 600.143372,627.658875 605.471252,627.798340 
	C608.738342,627.883850 609.775085,626.543091 609.868225,623.370728 
	C610.125916,614.589111 610.018982,614.634827 601.187744,614.805054 
	C587.860657,615.061951 574.525269,614.874390 561.193604,614.921997 
	C554.388000,614.946289 554.377136,614.991882 554.374329,621.981995 
	C554.367126,640.313782 554.239441,658.647095 554.459045,676.976196 
	C554.516296,681.751038 552.980469,683.411133 548.179871,683.339600 
	C538.685974,683.198120 538.711731,683.420593 538.647949,673.928345 
	C538.628052,670.968079 538.969116,667.964478 537.978271,664.712463 
	C533.255737,666.456299 528.914490,668.987000 523.863525,669.312561 
	C508.063232,670.331055 497.194489,663.593262 492.020935,648.441284 
	C490.258759,643.280457 487.683868,641.493042 482.661041,642.179932 
	C481.351746,642.358887 479.998047,642.201843 478.665039,642.220764 
	C468.588501,642.363525 464.471924,647.855774 467.114166,657.569946 
	C468.665405,663.273010 472.497803,667.493896 476.421417,671.561096 
	C479.012421,674.246887 478.759033,676.128967 476.188721,678.644958 
	C469.723389,684.973511 469.073090,685.061401 462.740387,678.521057 
	C456.584930,672.163818 452.042175,664.959839 450.576721,656.037292 
	C448.062225,640.727966 457.252991,628.906982 472.763031,627.885498 
	C477.742432,627.557617 482.759583,627.845093 487.756561,627.727905 
	C491.094116,627.649658 494.103973,627.777527 495.139465,631.875000 
	C495.605255,633.718262 497.203979,633.692078 498.825745,633.409546 
	C503.461517,632.601807 506.788025,629.029541 506.559479,624.996460 
	C506.266449,619.825439 502.057129,615.053101 497.199493,614.983521 
	C486.202850,614.825867 475.202362,614.963745 464.203644,614.920166 
	C457.212799,614.892456 450.219666,614.843872 443.232605,614.635254 
	C438.537354,614.495056 436.964203,616.473450 437.023956,621.201599 
	C437.255554,639.530334 437.144806,657.863708 437.114594,676.195251 
	C437.103485,682.931396 436.803955,683.170410 430.011322,683.247253 
	C429.011505,683.258545 427.999695,683.156738 427.013611,683.275024 
	C422.262115,683.845398 420.424072,681.890320 420.666016,677.038086 
	C420.989288,670.554871 420.632019,664.040649 420.785614,657.544922 
	C420.863525,654.251404 419.656586,652.989624 416.359833,653.417053 
	C408.158905,654.480225 400.094574,653.586731 392.129364,651.486450 
	C389.607483,650.821472 387.182739,650.971375 384.555389,653.300781 
	C388.819183,658.692871 393.079590,664.135437 397.399536,669.530396 
	C403.414948,677.042725 403.434692,677.028687 394.951904,681.993896 
	C394.233490,682.414490 393.497467,682.804993 392.432617,683.323242 
M538.663269,641.046570 
	C538.660706,633.906982 538.653015,626.767456 538.658508,619.627869 
	C538.660278,617.368652 538.598022,615.006165 535.579956,614.920593 
	C530.347534,614.772278 525.087830,614.104736 519.428833,614.987854 
	C522.131958,621.202820 524.311157,627.013611 521.848083,633.513611 
	C519.365540,640.065002 513.966125,642.969788 507.927521,644.941101 
	C510.264740,652.158630 515.826416,655.458740 523.627686,654.694397 
	C531.393677,653.933472 537.890259,648.414612 538.663269,641.046570 
M403.976959,614.447205 
	C401.869141,614.651733 399.761292,614.856262 397.049835,615.119324 
	C400.266724,622.882751 399.279755,630.508728 398.978668,638.202271 
	C405.093109,639.996033 410.962097,640.002441 416.896362,638.648071 
	C419.586487,638.034058 420.794006,636.488953 420.745728,633.711365 
	C420.661957,628.892761 420.617157,624.067871 420.772186,619.252563 
	C420.878754,615.942932 419.313660,614.875244 416.256836,614.865540 
	C412.440155,614.853455 408.624298,614.590698 403.976959,614.447205 
z"/>
<path fill="#000000" opacity="1.000000" stroke="none" 
	d="
M357.883423,732.313660 
	C355.660706,732.534180 353.807556,732.573669 352.060028,733.023499 
	C348.334229,733.982361 345.866272,736.398499 345.446289,740.282837 
	C345.005341,744.360657 347.478455,746.939941 350.940277,748.319092 
	C354.324310,749.667297 357.896912,750.583862 361.439575,751.481445 
	C365.649231,752.548157 369.728027,753.937927 373.738281,755.593262 
	C381.675781,758.869568 386.503082,764.595276 387.188599,773.236755 
	C387.906952,782.292175 384.312683,789.504089 376.737244,794.542725 
	C365.930298,801.730713 346.225311,800.808472 336.093292,792.775879 
	C331.431213,789.079773 328.810547,784.206909 327.789246,778.414062 
	C327.282318,775.538696 328.369751,773.919983 331.433228,773.866760 
	C333.764526,773.826172 336.098145,773.788086 338.424896,773.650330 
	C341.043915,773.495361 342.766449,774.148132 343.526306,777.097473 
	C346.079193,787.006470 363.183044,787.773376 368.945984,781.671326 
	C372.598877,777.803528 371.508392,771.458008 366.471680,769.101562 
	C362.883911,767.423096 358.951630,766.469055 355.151093,765.260986 
	C351.664124,764.152466 348.065338,763.350708 344.659546,762.040283 
	C333.850616,757.881531 329.628265,752.171936 329.639954,742.153076 
	C329.652313,731.544067 334.497772,724.241333 344.926605,720.622925 
	C354.532990,717.289673 364.250488,717.457581 373.553772,722.142883 
	C379.951813,725.365051 383.544739,730.747986 385.080963,737.617737 
	C385.711365,740.436707 384.849396,742.175415 381.667328,742.241455 
	C379.170624,742.293274 376.662933,742.313049 374.183746,742.572754 
	C371.801361,742.822205 370.483765,741.920776 369.649231,739.693848 
	C367.703094,734.500610 363.563751,732.501953 357.883423,732.313660 
z"/>
<path fill="#000000" opacity="1.000000" stroke="none" 
	d="
M441.550415,797.975342 
	C438.937561,798.117188 436.768097,798.086914 434.609619,798.226318 
	C431.363861,798.436218 428.903656,797.683228 428.827209,793.202454 
	C421.781708,798.835938 414.288696,800.558655 406.085144,798.384888 
	C398.752991,796.442078 394.188812,790.969482 393.725159,783.858337 
	C393.164093,775.253174 396.583069,769.585815 404.088898,766.318542 
	C410.372711,763.583252 417.174194,764.154053 423.701416,762.997253 
	C425.747040,762.634705 428.339813,762.975403 428.615265,759.900452 
	C428.881073,756.932678 427.534485,754.764404 424.925964,753.378235 
	C420.183441,750.858154 414.073883,752.171997 410.564056,756.451660 
	C408.500610,758.967712 399.321808,759.770386 396.857513,757.645508 
	C395.399078,756.387939 396.033142,754.945129 396.505707,753.516724 
	C399.406616,744.747803 406.468048,741.373596 414.715271,739.986816 
	C420.880188,738.950134 427.023499,739.699463 432.811157,742.287964 
	C440.566345,745.756470 443.872894,752.266907 444.093597,760.280029 
	C444.396240,771.267639 444.177246,782.269836 444.152649,793.265808 
	C444.148560,795.103271 444.156036,797.015198 441.550415,797.975342 
M427.500580,781.772034 
	C428.424316,779.966858 428.855469,778.074341 428.730438,776.026428 
	C428.620209,774.220947 427.787903,773.256348 425.961670,773.271240 
	C421.478149,773.307739 417.026794,773.677246 412.821411,775.356018 
	C410.245697,776.384277 409.041779,778.412109 409.183685,781.240173 
	C409.326843,784.093079 410.885315,785.753174 413.445923,786.725952 
	C418.172485,788.521790 422.892456,787.059814 427.500580,781.772034 
z"/>
<path fill="#000000" opacity="1.000000" stroke="none" 
	d="
M680.743164,795.142517 
	C679.452393,791.911560 678.331543,794.606262 677.608582,795.106934 
	C671.258301,799.505188 664.366211,800.398315 657.111145,798.286255 
	C649.569214,796.090881 645.097351,790.121033 644.823914,782.444641 
	C644.555969,774.920715 648.875061,768.926147 656.256531,765.958740 
	C662.455139,763.466858 669.074585,764.140076 675.433960,762.941772 
	C677.414246,762.568726 679.561279,762.567261 679.823608,759.833984 
	C680.084656,757.113525 679.260376,754.931335 676.783569,753.500977 
	C672.211243,750.860596 665.674622,752.152771 662.435608,756.372742 
	C660.353455,759.085510 650.670288,760.072632 648.370300,757.679260 
	C646.837769,756.084473 647.719238,754.196289 648.389709,752.518372 
	C651.708923,744.211548 658.789673,741.153259 666.839050,739.938904 
	C672.301819,739.114807 677.815247,739.488281 683.050659,741.693787 
	C690.886597,744.994751 695.289368,750.675476 695.315857,759.363342 
	C695.349976,770.529663 695.169250,781.699829 695.418762,792.860718 
	C695.514709,797.154480 693.761536,798.800232 689.851074,798.152405 
	C686.750061,797.638550 682.617371,800.269287 680.743164,795.142517 
M673.743286,773.424500 
	C670.675049,774.027405 667.537476,774.401428 664.559814,775.303223 
	C662.027039,776.070190 660.445190,778.041809 660.408081,780.866211 
	C660.376892,783.240295 661.583496,784.923706 663.613159,786.064392 
	C669.154724,789.178345 677.169495,786.417053 679.519104,780.583923 
	C681.610046,775.392944 680.249817,773.410767 673.743286,773.424500 
z"/>
<path fill="#000000" opacity="1.000000" stroke="none" 
	d="
M553.961914,768.892212 
	C559.276855,765.343323 564.908447,764.097961 570.810852,763.701050 
	C573.297974,763.533691 575.781677,763.269165 578.254456,762.951660 
	C580.197510,762.702271 582.438904,762.774963 582.770325,760.013245 
	C583.073425,757.487427 582.234436,755.443298 580.181763,753.896729 
	C576.044556,750.779602 568.686523,751.939514 565.430298,756.238464 
	C563.305176,759.044128 553.928467,760.134949 551.417542,757.769043 
	C549.927734,756.365173 550.721008,754.643433 551.270447,753.098389 
	C554.444580,744.173523 561.889954,741.169800 570.279541,739.865479 
	C575.963440,738.981750 581.632446,739.828857 586.934631,742.087036 
	C594.273621,745.212769 598.015747,751.104736 598.186401,758.920715 
	C598.437317,770.412842 598.197021,781.914917 598.299927,793.411560 
	C598.330322,796.811340 596.972412,798.375061 593.571045,798.200562 
	C592.241821,798.132324 590.904480,798.167358 589.572815,798.212097 
	C586.174744,798.326111 582.931519,798.255676 583.531006,793.191528 
	C570.235046,801.457031 557.954468,801.112305 551.428711,792.639526 
	C545.960449,785.539795 546.897461,775.654053 553.961914,768.892212 
M572.602417,774.099365 
	C570.253418,774.303894 567.977539,774.783264 566.004150,776.152344 
	C562.337036,778.696350 562.483398,783.794678 566.263428,786.112061 
	C570.979980,789.003723 578.927490,786.962891 581.683228,782.101929 
	C583.056458,779.679565 583.731018,776.923584 582.358215,774.473450 
	C581.050659,772.139648 578.432800,773.520081 576.379456,773.467407 
	C575.401245,773.442322 574.413879,773.771851 572.602417,774.099365 
z"/>
<path fill="#000000" opacity="1.000000" stroke="none" 
	d="
M524.841553,801.700195 
	C521.885620,809.647400 519.044739,817.175598 510.020111,819.620422 
	C507.884155,820.199097 505.760376,820.303711 503.597778,820.316040 
	C494.794403,820.366028 494.786621,820.205566 495.530182,811.438293 
	C495.816376,808.063721 497.008850,806.886780 500.443512,806.862061 
	C508.215393,806.806274 512.023987,800.959045 509.298126,793.719177 
	C503.550446,778.453430 497.768738,763.200500 492.026947,747.932556 
	C489.574585,741.411682 489.970306,740.853821 496.910126,740.818848 
	C507.327179,740.766296 505.349762,740.405151 508.234344,748.929810 
	C511.534058,758.681335 514.677917,768.485474 518.074829,778.831116 
	C519.859192,777.072754 520.298462,775.209839 520.845459,773.427002 
	C523.578674,764.519104 526.473572,755.655029 528.939026,746.673279 
	C530.165527,742.205139 532.455078,740.175110 537.111206,740.800781 
	C539.861023,741.170349 542.755554,740.186401 546.336853,742.044617 
	C539.232849,761.771851 532.108337,781.556091 524.841553,801.700195 
z"/>
<path fill="#000000" opacity="1.000000" stroke="none" 
	d="
M485.310364,790.168945 
	C485.366089,797.725342 485.366089,797.725342 478.580414,798.743591 
	C466.374817,800.575317 458.316376,794.109436 457.907196,781.847351 
	C457.652130,774.202759 457.744354,766.541626 457.873810,758.891235 
	C457.931305,755.494507 456.947174,753.484985 453.212097,753.380920 
	C448.278290,753.243469 449.837708,749.373169 449.679565,746.694092 
	C449.526978,744.109558 449.057831,740.847595 453.150421,740.932983 
	C456.998901,741.013184 457.891144,739.173584 457.862793,735.717468 
	C457.776154,725.154785 456.147125,725.696655 468.768463,725.689880 
	C471.929932,725.688171 473.412079,726.975464 473.256439,730.145081 
	C473.207611,731.140442 473.267395,732.140930 473.274567,733.139099 
	C473.327118,740.451172 473.325562,740.706482 480.470612,740.742920 
	C485.713989,740.769653 485.187866,744.085205 485.289948,747.483337 
	C485.397430,751.061157 484.951874,753.533508 480.288574,753.461304 
	C473.290375,753.353088 473.280182,753.623169 473.268433,760.698486 
	C473.258789,766.521362 473.381500,772.347229 473.228973,778.166077 
	C473.103241,782.963440 475.077332,785.453613 480.009064,785.084900 
	C483.416473,784.830200 485.577423,785.834290 485.310364,790.168945 
z"/>
<path fill="#000000" opacity="1.000000" stroke="none" 
	d="
M627.115356,771.951904 
	C627.120239,773.774292 627.120850,775.105713 627.132080,776.437073 
	C627.199158,784.386353 627.593079,784.874268 635.498962,785.156616 
	C638.046997,785.247681 638.958618,786.403748 639.255615,788.770569 
	C640.233215,796.561829 639.051697,798.499756 631.289490,798.889709 
	C619.923218,799.460510 611.880188,794.460815 611.724609,781.686523 
	C611.629333,773.865601 611.597839,766.040649 611.748291,758.221558 
	C611.805969,755.221008 611.147644,753.356873 607.738586,753.504028 
	C602.962036,753.710327 603.641907,750.241821 603.674500,747.303955 
	C603.706604,744.412537 602.856567,740.769348 607.587219,740.873291 
	C611.467468,740.958618 611.706726,738.705811 611.726379,735.706787 
	C611.794495,725.315308 609.356506,725.655640 622.533142,725.690002 
	C625.718811,725.698364 627.134705,727.074097 627.109253,730.158386 
	C627.101013,731.156738 627.124268,732.155334 627.131592,733.153809 
	C627.181885,740.049988 626.252136,741.179321 634.252319,740.786621 
	C639.824585,740.513184 639.025635,744.455200 639.212585,747.930054 
	C639.406677,751.535950 638.432068,753.490417 634.260193,753.465149 
	C627.174133,753.422241 627.169495,753.633484 627.137390,760.976379 
	C627.122070,764.471191 627.122559,767.966064 627.115356,771.951904 
z"/>
<path fill="#000000" opacity="1.000000" stroke="none" 
	d="
M498.261108,379.119019 
	C516.292969,356.232513 534.093262,333.595795 551.873169,310.943085 
	C558.666199,302.288361 565.902710,301.644348 573.878479,309.044769 
	C583.393311,317.873138 583.680908,322.804626 575.705444,332.826447 
	C554.356506,359.653046 533.096191,386.550171 511.796570,413.415955 
	C510.659241,414.850494 509.531067,416.296753 508.317627,417.665771 
	C502.407227,424.333893 493.492859,424.700073 487.266632,418.228180 
	C474.456116,404.912323 461.756592,391.488525 449.118774,378.008453 
	C444.010101,372.559357 444.224426,365.525604 449.340820,360.085785 
	C450.595184,358.752136 451.875183,357.438599 453.203217,356.178864 
	C458.747040,350.920258 466.537811,350.948853 471.917542,356.417572 
	C478.921387,363.537262 485.762512,370.816833 492.744568,377.958252 
	C494.133362,379.378754 495.494293,381.822205 498.261108,379.119019 
z"/>
</svg>